HIERARCHY
ROOT hip
{
  OFFSET 0.0 0.0 0.0
  CHANNELS 6 Xposition Yposition Zposition Zrotation Yrotation Xrotation
  JOINT torso
  {
    OFFSET 0.0 0.0 0.0
    CHANNELS 3 Zrotation Xrotation Yrotation
    JOINT neck
    {
      OFFSET -31.42098999999993 328.8025209999999 74.3554680000002
      CHANNELS 3 Zrotation Xrotation Yrotation
      JOINT head
      {
        OFFSET 3.3519900000001144 303.81732099999994 206.53942900000015
        CHANNELS 3 Zrotation Xrotation Yrotation
        End Site
        {
          OFFSET 0.0 0.0 0.0
        }
      }
    }
    JOINT left_collar
    {
      OFFSET -31.42098999999993 328.8025209999999 74.3554680000002
      CHANNELS 3 Zrotation Xrotation Yrotation
      JOINT left_upper_arm
      {
        OFFSET -124.490479 -8.162841999999841 8.226441000000023
        CHANNELS 3 Zrotation Xrotation Yrotation
        JOINT left_forearm
        {
          OFFSET -253.595764 -1.5758060000000569 105.0729980000001
          CHANNELS 3 Zrotation Xrotation Yrotation
          JOINT left_hand
          {
            OFFSET -269.48803699999996 0.1478270000000066 -55.346191999999974
            CHANNELS 3 Zrotation Xrotation Yrotation
            End Site
            {
              OFFSET 0.0 0.0 0.0
            }
          }
        }
      }
    }
    JOINT right_collar
    {
      OFFSET -31.42098999999993 328.8025209999999 74.3554680000002
      CHANNELS 3 Zrotation Xrotation Yrotation
      JOINT right_upper_arm
      {
        OFFSET 162.02484099999998 0.46441600000002836 2.2303470000001653
        CHANNELS 3 Zrotation Xrotation Yrotation
        JOINT right_forearm
        {
          OFFSET 240.01246700000004 -25.835875999999985 121.34179699999959
          CHANNELS 3 Zrotation Xrotation Yrotation
          JOINT right_hand
          {
            OFFSET 252.48539699999992 18.910399999999868 -67.53466800000001
            CHANNELS 3 Zrotation Xrotation Yrotation
            End Site
            {
              OFFSET 0.0 0.0 0.0
            }
          }
        }
      }
    }
  }
}
MOTION
Frames: 14
Frame Time: 0.01
-294.0371089999997 310.9671939999997 1584.6171880000002 -1.0113547856655252 -2.779138677069528 12.90971177148555 3.2757928419155156 1.771096004576449 -0.5243419105102242 3.7717096071683964 5.512128949643915 -2.525555139453584 0.0 0.0 0.0 -2.160218639923609 -0.11820044611248717 -0.5234781909059532 -36.38104064991786 -34.81696869563013 -42.97136867953385 -18.05538880508687 3.6083028481204344 -0.7832657376837749 0.0 0.0 0.0 -0.5807284545783781 -0.054700987649738284 -27.993116730523507 22.981214288675773 -28.281962388356444 69.49161527008846 18.866310679094546 8.65622994975599 -13.2304945855119 0.0 0.0 0.0
-293.9403689999997 310.9174799999997 1584.7329100000002 -1.0321111878467504 -2.7704184132763694 12.972404164115982 3.309383903219282 1.746848085946562 -0.5344956126617914 3.79609227756431 5.485720295504992 -2.541667675654099 0.0 0.0 0.0 -2.164591277741961 -0.11545316542373066 -0.5890954376218275 -36.32981663408013 -34.78895209499393 -43.00955794965122 -18.184016511396532 3.6255343806857074 -0.8366384320804643 0.0 0.0 0.0 -0.7840751200088095 -0.10026383965096887 -27.47733669140766 23.309132205379107 -28.24733531157039 68.21062754169552 19.027007445732696 8.568854886302018 -12.672722924201638 0.0 0.0 0.0
-293.8279419999997 310.89068599999973 1584.8116460000003 -1.0436395042425848 -2.8410756390895413 12.957831132157922 3.3261627917929992 1.813494707052815 -0.5297791719037704 3.802472185462898 5.455858022474613 -2.5460523186746684 0.0 0.0 0.0 -2.17526082259788 -0.11794108646589148 -0.5518905023759417 -36.26073569242579 -34.75548866087299 -43.06881133126518 -18.17045381854795 3.6263290702731767 -0.8153648305644007 0.0 0.0 0.0 -0.7088962758991201 -0.08330122252816403 -27.570265314247717 23.228070315395225 -28.2518482202726 68.51740800943992 18.970142824708464 8.581777839890123 -12.804277537924202 0.0 0.0 0.0
-293.69168099999973 310.87042199999973 1584.8959960000002 -1.0112726097379314 -2.826385757213261 12.98170962918293 3.3102953660327135 1.7925076901476877 -0.5290181453870585 3.749250915376448 5.430068406655742 -2.5114683065898165 0.0 0.0 0.0 -2.1882995671724954 -0.11669323305825631 -0.5987148041660737 -36.19690981140801 -34.74053152419189 -43.151907860589105 -18.16486687425367 3.640521914554913 -0.723340844196987 0.0 0.0 0.0 -0.25069592687099673 0.022630633953518896 -27.818344531548398 22.66213867983692 -27.65657679588139 69.31613744931167 19.03050224594668 8.624089259307745 -12.867552480755139 0.0 0.0 0.0
-293.5669859999997 310.8718569999997 1584.9602050000003 -1.0179897565742457 -2.815785534975763 12.974497784131604 3.3229231782696265 1.7870859623436395 -0.5323750071205007 3.741919477276161 5.396886930389326 -2.506910353778944 0.0 0.0 0.0 -2.1747852165036377 -0.11455882761060784 -0.6239323220890307 -36.175388550318615 -34.71421964843327 -43.142356191308686 -18.054121182470013 3.622520083552529 -0.6958241975315497 0.0 0.0 0.0 -0.34336885717922133 0.0010254507374790924 -27.85110825795537 22.71972900586308 -27.808633163332985 69.43471765299032 19.019920860602067 8.652396473638857 -12.985777601108635 0.0 0.0 0.0
-293.4577939999997 310.8464359999997 1585.0234380000002 -0.972601103902928 -2.815765173548022 12.999936259767962 3.2846195368458586 1.7844717088058195 -0.5245600300299238 3.760266855898581 5.364994451946768 -2.5191265686255577 0.0 0.0 0.0 -2.2058170058119235 -0.11418481279044133 -0.679986012073728 -36.092015238231475 -34.65138481601021 -43.17453937223909 -18.072107577622045 3.62417607382976 -0.7079631570683912 0.0 0.0 0.0 -0.43245019661847856 -0.019937043209137112 -28.030788163791954 22.77223905332692 -27.97756386811045 69.60796449975166 19.02140043986687 8.673015664508272 -13.058136519703764 0.0 0.0 0.0
-293.3352049999997 310.8428959999997 1585.0805660000003 -0.9848482481347465 -2.8039871658192035 12.94881967544107 3.2879335874526596 1.7879686884748343 -0.5248305463412474 3.738859413450874 5.329763045572645 -2.5053786267255096 0.0 0.0 0.0 -2.1739495649609437 -0.11339096283942157 -0.6477685991071422 -36.006077852930495 -34.573486032811346 -43.18452750855444 -18.214763072041166 3.631262189080229 -0.8396570221614095 0.0 0.0 0.0 -0.4849381817725154 -0.03228353686133814 -28.037501763287366 22.81857868343836 -28.088909570789856 69.67723772373924 19.016927668657008 8.67520427292729 -13.072748218719472 0.0 0.0 0.0
-293.22576899999973 310.81805399999973 1585.1300050000002 -0.9408597934649315 -2.8119449568389157 12.971502320446922 3.2543873518083393 1.795888385581751 -0.5167229895192543 3.747213715541467 5.305637429124954 -2.511010268201462 0.0 0.0 0.0 -2.2072669162835017 -0.11360476322866864 -0.694797620294415 -35.95225571835726 -34.52577205298471 -43.19271054331054 -18.23359824037721 3.636162923363653 -0.8331750971639488 0.0 0.0 0.0 -0.517029549866034 -0.039909496395994885 -28.08423440264276 22.843834028148816 -28.13225298036502 69.67717120363712 19.0284643895575 8.67339463714639 -13.048932704644372 0.0 0.0 0.0
-293.1049189999997 310.80560299999973 1585.1910400000002 -0.9466083935730842 -2.7989810133423965 12.986275570142588 3.2674780994217327 1.7848304736485776 -0.520873044569247 3.7251729608044597 5.284533302263226 -2.4967417593386085 0.0 0.0 0.0 -2.237234029240927 -0.10978227913172176 -0.8249915545253054 -35.90651227029008 -34.491537204230696 -43.210919090505236 -18.123194069894552 3.6397821951519838 -0.6767146114128201 0.0 0.0 0.0 -0.4310542825650872 -0.0191082343942427 -27.50057219306858 22.90362295982162 -27.784284020260486 68.68929564471273 19.1444551903462 8.577561148987462 -12.530275624650884 0.0 0.0 0.0
-292.9915159999997 310.7886659999997 1585.2475590000001 -0.9010990177751785 -2.7553238159414817 13.006304749437508 3.231585509895416 1.7401443600856363 -0.518767005595235 3.7596169758477958 5.271276621693098 -2.519364654264199 0.0 0.0 0.0 -2.206121520944527 -0.11058430758996704 -0.758370332249698 -35.89916061584362 -34.528643545633685 -43.28961307356002 -18.147253383564294 3.649932149059685 -0.6452404135362415 0.0 0.0 0.0 -0.32224276280561964 0.005928133245781164 -27.358369986054868 22.80231886785958 -27.48223245425672 68.39412396822492 19.29047772524562 8.536009063264043 -12.166204036056158 0.0 0.0 0.0
-292.8599849999997 310.7995299999997 1585.2689210000003 -0.8858768491151857 -2.7841809693758237 12.978611272181652 3.222207606025283 1.783086461096671 -0.5114692036650355 3.7455857647864024 5.24550090714274 -2.5103665267455586 0.0 0.0 0.0 -2.2014038240356846 -0.10970338044638848 -0.7700097254792277 -35.89187596710869 -34.50332782647443 -43.257211735134234 -18.12714383784402 3.641586745851995 -0.670709802945618 0.0 0.0 0.0 -0.29165382578380694 0.012914258493978974 -27.315804729166473 22.77102495140253 -27.424912192371597 68.38323487708297 19.291165949817255 8.533129471528513 -12.154833956961356 0.0 0.0 0.0
-292.7012329999997 310.8263239999997 1585.2940670000003 -0.9280053673637699 -2.788173222340969 13.014277055452416 3.2835076960459957 1.7919053501411113 -0.5234020289793087 3.811839217538354 5.230738314975913 -2.5538229852069616 0.0 0.0 0.0 -2.2397231354054745 -0.10769929941417765 -0.8743136755500053 -35.90868295435729 -34.491823153075245 -43.207673111290354 -17.9276474925482 3.6192588742294687 -0.5588395793116399 0.0 0.0 0.0 -0.314664383049178 0.007661029815308379 -27.346734500642295 22.81204081016633 -27.442841910622676 68.26814047411507 19.29412866030389 8.491634908018112 -12.001072689492476 0.0 0.0 0.0
-292.56777999999974 310.8306879999997 1585.3336180000001 -0.9172801813054791 -2.7369890829904144 13.025280100949129 3.280114024857214 1.7499330731881715 -0.5278838252708856 3.826092822930281 5.2109185480968945 -2.56329654594005 0.0 0.0 0.0 -2.219762110398852 -0.10519641165655132 -0.896727370237533 -35.901298864059655 -34.4396051208251 -43.127499465616935 -18.06170875781564 3.6167822490236428 -0.7398111426782952 0.0 0.0 0.0 -0.29368326141704604 0.012456789884219279 -27.335220275935416 22.78281227522013 -27.395314995468002 68.27132530385867 19.309132228583252 8.48304332232188 -11.94832623094977 0.0 0.0 0.0
-292.4174499999997 310.8450319999997 1585.3591310000002 -0.9178933401053395 -2.69874776983964 13.040007126200004 3.295260835736985 1.7162820664299436 -0.5352819446599028 3.8295024576868184 5.201051819237494 -2.5656011480811562 0.0 0.0 0.0 -2.238421671101856 -0.10885902563138848 -0.8469823104978943 -35.8127059681781 -34.4170256840805 -43.2406983533888 -18.10924437170694 3.6368416300822255 -0.6772753651446766 0.0 0.0 0.0 -0.29131164199858745 0.013006788813083998 -27.357954805332263 22.76445644161772 -27.37907424507987 68.3042569812984 19.31640982928573 8.480010273500676 -11.926841667578275 0.0 0.0 0.0
